# xmcd
#
# Track frame offsets:
#	150
#	13512
#	24995
#	35325
#	48127
#	62170
#	74947
#	88442
#	100365
#	114015
#	128115
#	138490
#
# Disc length: 1989
#
# Revision: 9
# Processed by: cddbd v1.5.1PL0 Copyright (c) Steve Scherf et al.
# Submitted via: AltoMP3_Maker 3.0
# Normalized: r7:TDELIM( - ),TSWAP
#
DISCID=a407c30c
DTITLE=Various Artist - Country Superstars
DYEAR=1900
DGENRE=
TTITLE0=Lynn Anderson - Top Of The World
TTITLE1=Don Gibson - Sea Of Heartbreak
TTITLE2=Connie Smith - Once A Day
TTITLE3=David Houston - My Elusive Dreams
TTITLE4=Jeannie Seely - Don't Touch Me
TTITLE5=Stonewall Jackson - Me And You And A Dog Named Boo
TTITLE6=Johnny Paycheck - She's All I Got
TTITLE7=Donna fargo - The Happiest Girl In The Whole U.S.A.
TTITLE8=Jimmy Dean - Big Bad John
TTITLE9=Barbara Fairchild - Teddy Bear Song
TTITLE10=Faron Young - Hello Walls
TTITLE11=Ferlin Husky - Wings Of A Dove
EXTD=
EXTT0=
EXTT1=
EXTT2=
EXTT3=
EXTT4=
EXTT5=
EXTT6=
EXTT7=
EXTT8=
EXTT9=
EXTT10=
EXTT11=
PLAYORDER=
